<?xml version="1.0" standalone="no"?>
<!DOCTYPE svg PUBLIC "-//W3C//DTD SVG 20010904//EN"
 "http://www.w3.org/TR/2001/REC-SVG-20010904/DTD/svg10.dtd">
<svg version="1.0" xmlns="http://www.w3.org/2000/svg"
 width="300.000000pt" height="300.000000pt" viewBox="0 0 300.000000 300.000000"
 preserveAspectRatio="xMidYMid meet">
<metadata>
Created by potrace 1.14, written by Peter Selinger 2001-2017
</metadata>
<g transform="translate(0.000000,300.000000) scale(0.100000,-0.100000)"
fill="#000000" stroke="none">
<path d="M435 2641 c-30 -9 -49 -23 -67 -52 -15 -24 -17 -99 -17 -855 0 -580
4 -834 11 -848 26 -48 56 -62 133 -65 102 -3 291 -26 325 -38 8 -4 18 -6 22
-5 4 1 38 -8 75 -20 37 -12 73 -23 80 -24 14 -3 186 -87 229 -112 18 -10 39
-26 49 -35 9 -9 19 -17 23 -17 4 0 23 -15 43 -33 20 -17 45 -40 56 -49 19 -18
19 -14 19 841 l-1 859 -35 48 c-67 94 -129 156 -215 215 -63 44 -201 112 -265
130 -25 7 -49 14 -55 16 -95 30 -358 58 -410 44z"/>
<path d="M2416 2643 c-1 -1 -27 -5 -57 -9 -78 -8 -180 -30 -271 -57 -52 -16
-209 -89 -233 -109 -5 -5 -25 -20 -44 -33 -64 -46 -171 -155 -171 -175 0 -6
-4 -10 -8 -10 -4 0 -17 -15 -27 -32 -19 -32 -20 -56 -21 -891 l-1 -857 26 22
c14 13 33 30 42 38 114 105 339 215 510 249 144 28 147 29 273 37 60 3 116 8
125 9 9 2 19 4 23 4 4 1 20 13 35 27 l28 26 2 843 1 843 -21 31 c-12 17 -31
34 -42 38 -18 6 -164 11 -169 6z"/>
<path d="M83 2272 c-12 -2 -36 -17 -52 -35 l-31 -31 0 -883 c0 -974 -3 -926
62 -955 37 -17 53 -16 188 11 52 11 113 22 135 25 56 7 141 16 200 22 63 6
362 6 395 0 14 -2 51 -7 84 -11 32 -4 68 -9 80 -11 50 -9 69 -14 87 -19 27 -9
24 4 -8 32 -91 80 -262 162 -415 197 -59 13 -82 17 -168 30 -19 3 -78 8 -131
10 -115 6 -143 12 -189 41 -51 33 -86 73 -111 130 l-23 50 0 698 c-1 461 -4
697 -11 698 -23 4 -72 4 -92 1z"/>
<path d="M2823 2271 c-5 -3 -9 -319 -9 -701 l0 -695 -26 -56 c-51 -111 -135
-159 -287 -165 -92 -4 -111 -6 -209 -19 -71 -10 -186 -42 -269 -75 -71 -29
-183 -90 -209 -115 -6 -5 -23 -19 -37 -30 -31 -23 -35 -39 -8 -30 86 27 251
44 441 46 137 1 216 -4 390 -26 38 -5 187 -31 235 -41 52 -11 79 -11 107 3 60
29 58 -10 58 948 0 947 2 915 -53 944 -26 14 -110 22 -124 12z"/>
</g>
</svg>
